<?xml version="1.0" encoding="utf-8" standalone="yes"?> <svg width="1000" height="1000" viewBox="-1 -1 35 35" xmlns="http://www.w3.org/2000/svg" xmlns:xlink="http://www.w3.org/1999/xlink" shape-rendering="crispEdges" id="qr code"><rect id="qr background" fill-opacity="1" fill="rgb(255, 255, 255)" x="-1" y="-1" width="35" height="35"></rect><path fill-opacity="1" fill="rgb(0, 0, 0)" id="qr dark pixels" fill-rule="evenodd" d="M 12 0 L 14 0 L 14 1 L 13 1 L 13 4 L 15 4 L 15 3 L 16 3 L 16 4 L 17 4 L 17 7 L 16 7 L 16 6 L 15 6 L 15 5 L 14 5 L 14 6 L 13 6 L 13 7 L 12 7 z M 17 0 L 20 0 L 20 1 L 19 1 L 19 2 L 18 2 L 18 3 L 21 3 L 21 2 L 20 2 L 20 1 L 22 1 L 22 2 L 23 2 L 23 3 L 22 3 L 22 5 L 20 5 L 20 4 L 17 4 L 17 3 L 16 3 L 16 1 L 17 1 z M 23 0 L 24 0 L 24 1 L 23 1 z M 8 1 L 9 1 L 9 2 L 8 2 z M 10 1 L 11 1 L 11 2 L 10 2 z M 14 1 L 15 1 L 15 3 L 14 3 z M 8 3 L 11 3 L 11 4 L 10 4 L 10 6 L 9 6 L 9 7 L 8 7 L 8 5 L 9 5 L 9 4 L 8 4 z M 23 3 L 25 3 L 25 4 L 24 4 L 24 6 L 23 6 z M 18 5 L 20 5 L 20 6 L 19 6 L 19 8 L 18 8 L 18 9 L 20 9 L 20 10 L 19 10 L 19 11 L 17 11 L 17 10 L 16 10 L 16 11 L 17 11 L 17 12 L 18 12 L 18 13 L 19 13 L 19 14 L 17 14 L 17 13 L 16 13 L 16 14 L 17 14 L 17 15 L 16 15 L 16 16 L 18 16 L 18 15 L 19 15 L 19 17 L 20 17 L 20 18 L 22 18 L 22 19 L 23 19 L 23 20 L 21 20 L 21 19 L 20 19 L 20 20 L 21 20 L 21 21 L 20 21 L 20 22 L 22 22 L 22 23 L 20 23 L 20 26 L 19 26 L 19 27 L 17 27 L 17 26 L 18 26 L 18 25 L 19 25 L 19 24 L 18 24 L 18 23 L 17 23 L 17 22 L 19 22 L 19 19 L 18 19 L 18 17 L 15 17 L 15 16 L 14 16 L 14 15 L 15 15 L 15 13 L 14 13 L 14 12 L 15 12 L 15 9 L 14 9 L 14 10 L 13 10 L 13 11 L 14 11 L 14 12 L 12 12 L 12 11 L 10 11 L 10 9 L 13 9 L 13 8 L 14 8 L 14 6 L 15 6 L 15 7 L 16 7 L 16 8 L 17 8 L 17 7 L 18 7 z M 10 6 L 11 6 L 11 7 L 12 7 L 12 8 L 10 8 L 10 9 L 6 9 L 6 8 L 9 8 L 9 7 L 10 7 z M 20 6 L 21 6 L 21 7 L 22 7 L 22 8 L 21 8 L 21 9 L 20 9 z M 22 6 L 23 6 L 23 7 L 22 7 z M 24 6 L 25 6 L 25 7 L 24 7 z M 23 7 L 24 7 L 24 8 L 26 8 L 26 10 L 23 10 L 23 9 L 22 9 L 22 8 L 23 8 z M 0 8 L 5 8 L 5 10 L 4 10 L 4 9 L 3 9 L 3 10 L 2 10 L 2 9 L 1 9 L 1 10 L 2 10 L 2 11 L 5 11 L 5 12 L 4 12 L 4 13 L 3 13 L 3 12 L 2 12 L 2 14 L 1 14 L 1 13 L 0 13 L 0 12 L 1 12 L 1 11 L 0 11 z M 27 8 L 28 8 L 28 9 L 27 9 z M 29 8 L 30 8 L 30 9 L 29 9 z M 31 8 L 32 8 L 32 10 L 30 10 L 30 9 L 31 9 z M 28 9 L 29 9 L 29 10 L 28 10 z M 5 10 L 7 10 L 7 11 L 5 11 z M 8 10 L 9 10 L 9 12 L 12 12 L 12 13 L 9 13 L 9 15 L 8 15 L 8 16 L 7 16 L 7 15 L 6 15 L 6 16 L 7 16 L 7 17 L 5 17 L 5 16 L 4 16 L 4 15 L 5 15 L 5 14 L 7 14 L 7 13 L 6 13 L 6 12 L 7 12 L 7 11 L 8 11 z M 20 10 L 21 10 L 21 12 L 19 12 L 19 11 L 20 11 z M 22 10 L 23 10 L 23 11 L 22 11 z M 29 10 L 30 10 L 30 11 L 29 11 z M 32 10 L 33 10 L 33 11 L 32 11 z M 23 11 L 25 11 L 25 12 L 26 12 L 26 13 L 24 13 L 24 12 L 23 12 z M 26 11 L 27 11 L 27 12 L 26 12 z M 28 11 L 29 11 L 29 12 L 30 12 L 30 11 L 31 11 L 31 12 L 33 12 L 33 16 L 32 16 L 32 15 L 31 15 L 31 18 L 29 18 L 29 19 L 28 19 L 28 22 L 27 22 L 27 18 L 26 18 L 26 16 L 25 16 L 25 15 L 27 15 L 27 14 L 28 14 zM 29 13 L 30 13 L 30 14 L 29 14 z M 31 13 L 32 13 L 32 14 L 31 14 z M 29 15 L 30 15 L 30 16 L 29 16 z M 28 16 L 29 16 L 29 17 L 28 17 z M 21 12 L 22 12 L 22 13 L 24 13 L 24 14 L 22 14 L 22 15 L 21 15 L 21 16 L 20 16 L 20 13 L 21 13 z M 4 13 L 5 13 L 5 14 L 4 14 z M 12 13 L 13 13 L 13 14 L 14 14 L 14 15 L 10 15 L 10 14 L 12 14 z M 26 13 L 27 13 L 27 14 L 26 14 z M 2 14 L 3 14 L 3 16 L 4 16 L 4 17 L 3 17 L 3 18 L 2 18 L 2 17 L 0 17 L 0 16 L 2 16 z M 24 14 L 25 14 L 25 15 L 24 15 z M 9 15 L 10 15 L 10 16 L 9 16 z M 10 16 L 13 16 L 13 17 L 12 17 L 12 18 L 11 18 L 11 17 L 10 17 z M 21 16 L 22 16 L 22 17 L 21 17 z M 23 16 L 25 16 L 25 18 L 26 18 L 26 20 L 25 20 L 25 22 L 27 22 L 27 23 L 25 23 L 25 24 L 27 24 L 27 23 L 28 23 L 28 24 L 29 24 L 29 19 L 31 19 L 31 21 L 30 21 L 30 22 L 31 22 L 31 23 L 30 23 L 30 24 L 33 24 L 33 26 L 30 26 L 30 25 L 29 25 L 29 26 L 30 26 L 30 27 L 31 27 L 31 28 L 32 28 L 32 29 L 33 29 L 33 30 L 31 30 L 31 29 L 29 29 L 29 30 L 28 30 L 28 29 L 27 29 L 27 30 L 26 30 L 26 29 L 23 29 L 23 30 L 21 30 L 21 29 L 22 29 L 22 28 L 19 28 L 19 27 L 20 27 L 20 26 L 22 26 L 22 27 L 24 27 L 24 23 L 23 23 L 23 20 L 24 20 L 24 19 L 23 19 L 23 18 L 22 18 L 22 17 L 23 17 zM 25 25 L 28 25 L 28 28 L 25 28 z M 4 17 L 5 17 L 5 18 L 4 18 z M 8 17 L 9 17 L 9 19 L 8 19 z M 13 17 L 14 17 L 14 18 L 17 18 L 17 19 L 18 19 L 18 20 L 17 20 L 17 22 L 15 22 L 15 24 L 14 24 L 14 22 L 13 22 L 13 21 L 12 21 L 12 22 L 11 22 L 11 24 L 9 24 L 9 27 L 8 27 L 8 24 L 7 24 L 7 23 L 6 23 L 6 24 L 7 24 L 7 25 L 2 25 L 2 23 L 3 23 L 3 21 L 2 21 L 2 22 L 1 22 L 1 25 L 0 25 L 0 20 L 1 20 L 1 19 L 0 19 L 0 18 L 2 18 L 2 19 L 4 19 L 4 21 L 5 21 L 5 22 L 4 22 L 4 24 L 5 24 L 5 22 L 7 22 L 7 21 L 8 21 L 8 20 L 9 20 L 9 21 L 11 21 L 11 19 L 12 19 L 12 20 L 13 20 L 13 19 L 12 19 L 12 18 L 13 18 zM 14 20 L 16 20 L 16 21 L 14 21 z M 8 22 L 10 22 L 10 23 L 8 23 z M 5 18 L 7 18 L 7 19 L 6 19 L 6 20 L 7 20 L 7 21 L 5 21 z M 10 18 L 11 18 L 11 19 L 10 19 z M 31 18 L 33 18 L 33 21 L 32 21 L 32 19 L 31 19 z M 12 22 L 13 22 L 13 23 L 12 23 z M 32 22 L 33 22 L 33 23 L 32 23 z M 22 23 L 23 23 L 23 24 L 22 24 z M 11 24 L 14 24 L 14 26 L 13 26 L 13 28 L 12 28 L 12 27 L 11 27 L 11 28 L 12 28 L 12 29 L 11 29 L 11 30 L 9 30 L 9 31 L 11 31 L 11 30 L 12 30 L 12 31 L 13 31 L 13 32 L 12 32 L 12 33 L 11 33 L 11 32 L 10 32 L 10 33 L 8 33 L 8 28 L 9 28 L 9 27 L 10 27 L 10 25 L 11 25 z M 17 24 L 18 24 L 18 25 L 17 25 z M 22 25 L 23 25 L 23 26 L 22 26 z M 26 26 L 27 26 L 27 27 L 26 27 z M 14 27 L 16 27 L 16 28 L 17 28 L 17 29 L 16 29 L 16 30 L 17 30 L 17 32 L 16 32 L 16 31 L 15 31 L 15 28 L 14 28 z M 32 27 L 33 27 L 33 28 L 32 28 z M 13 28 L 14 28 L 14 30 L 13 30 z M 18 28 L 19 28 L 19 30 L 18 30 z M 20 30 L 21 30 L 21 31 L 20 31 z M 23 30 L 24 30 L 24 33 L 23 33 z M 25 30 L 26 30 L 26 31 L 25 31 z M 27 30 L 28 30 L 28 32 L 27 32 z M 30 30 L 31 30 L 31 31 L 30 31 z M 32 31 L 33 31 L 33 32 L 32 32 z M 13 32 L 15 32 L 15 33 L 13 33 z M 18 32 L 19 32 L 19 33 L 18 33 z M 20 32 L 21 32 L 21 33 L 20 33 z M 26 32 L 27 32 L 27 33 L 26 33 z M 28 32 L 30 32 L 30 33 L 28 33 z"></path><path id="qr squares" d="M0,0h7h0v0v7v0h0h-7h0v0v-7v0h0zM1,1h5h0v0v5v0h0h-5h0v0v-5v0h0zM2,2h3h0v0v3v0h0h-3h0v0v-3v0h0z M26,0h7h0v0v7v0h0h-7h0v0v-7v0h0zM27,1h5h0v0v5v0h0h-5h0v0v-5v0h0zM28,2h3h0v0v3v0h0h-3h0v0v-3v0h0z M0,26h7h0v0v7v0h0h-7h0v0v-7v0h0zM1,27h5h0v0v5v0h0h-5h0v0v-5v0h0zM2,28h3h0v0v3v0h0h-3h0v0v-3v0h0z" fill-rule="evenodd" fill-opacity="1" fill="rgb(0, 0, 0)"></path></svg>